<svg xmlns="http://www.w3.org/2000/svg" width="470" height="210" viewBox="0 0 470 210">
<defs><linearGradient id="s" x1="0" y1="0" x2="0" y2="1"><stop offset="0" stop-color="#f472b6" stop-opacity="0"/><stop offset=".5" stop-color="#f472b6" stop-opacity=".16"/><stop offset="1" stop-color="#f472b6" stop-opacity="0"/></linearGradient>
<clipPath id="c"><rect width="470" height="210" rx="14"/></clipPath></defs>
<rect width="470" height="210" rx="14" fill="#070b14"/>
<g clip-path="url(#c)"><rect width="470" height="46" fill="url(#s)"><animate attributeName="y" values="-46;210" dur="5s" repeatCount="indefinite"/></rect></g>
<rect x=".5" y=".5" width="469" height="209" rx="14" fill="none" stroke="#f472b6" stroke-opacity=".28"/>
<path d="M1 26V14Q1 1 14 1H26M444 1H456Q469 1 469 14V26M469 184V196Q469 209 456 209H444M26 209H14Q1 209 1 196V184" fill="none" stroke="#f472b6" stroke-width="2.2"/>
<text x="24" y="36" font-family="'JetBrains Mono','SFMono-Regular',Consolas,monospace" font-size="11" fill="#f472b6" letter-spacing="2">04 · ERP · NEGOCIOS</text>
<circle cx="446" cy="32" r="4" fill="#f472b6"><animate attributeName="opacity" values="1;.2;1" dur="2s" repeatCount="indefinite"/></circle>
<text x="436" y="36" text-anchor="end" font-family="'JetBrains Mono','SFMono-Regular',Consolas,monospace" font-size="10" fill="#7d8aa5">software de gestión</text>
<text x="24" y="74" font-family="Georgia,serif" font-size="27" font-weight="700" fill="#e6edf7">GestorElectric</text>
<text x="24" y="98" font-family="'JetBrains Mono','SFMono-Regular',Consolas,monospace" font-size="12.5" fill="#b8c4dc">Sistema de gestión para un negocio eléctrico:</text><text x="24" y="118" font-family="'JetBrains Mono','SFMono-Regular',Consolas,monospace" font-size="12.5" fill="#b8c4dc">contabilidad, compras, inventario, soporte</text><text x="24" y="138" font-family="'JetBrains Mono','SFMono-Regular',Consolas,monospace" font-size="12.5" fill="#b8c4dc">e informes en un solo lugar.</text><rect x="24" y="168" width="61" height="22" rx="11" fill="#f472b6" fill-opacity=".12" stroke="#f472b6" stroke-opacity=".5"/><text x="33" y="183" font-family="'JetBrains Mono','SFMono-Regular',Consolas,monospace" font-size="11" fill="#e6edf7">Python</text><rect x="93" y="168" width="54" height="22" rx="11" fill="#f472b6" fill-opacity=".12" stroke="#f472b6" stroke-opacity=".5"/><text x="102" y="183" font-family="'JetBrains Mono','SFMono-Regular',Consolas,monospace" font-size="11" fill="#e6edf7">Flask</text><rect x="154" y="168" width="32" height="22" rx="11" fill="#f472b6" fill-opacity=".12" stroke="#f472b6" stroke-opacity=".5"/><text x="163" y="183" font-family="'JetBrains Mono','SFMono-Regular',Consolas,monospace" font-size="11" fill="#e6edf7">JS</text><rect x="194" y="168" width="75" height="22" rx="11" fill="#f472b6" fill-opacity=".12" stroke="#f472b6" stroke-opacity=".5"/><text x="203" y="183" font-family="'JetBrains Mono','SFMono-Regular',Consolas,monospace" font-size="11" fill="#e6edf7">HTML/CSS</text></svg>