<svg xmlns="http://www.w3.org/2000/svg" width="470" height="210" viewBox="0 0 470 210">
<defs><linearGradient id="s" x1="0" y1="0" x2="0" y2="1"><stop offset="0" stop-color="#fb923c" stop-opacity="0"/><stop offset=".5" stop-color="#fb923c" stop-opacity=".16"/><stop offset="1" stop-color="#fb923c" stop-opacity="0"/></linearGradient>
<clipPath id="c"><rect width="470" height="210" rx="14"/></clipPath></defs>
<rect width="470" height="210" rx="14" fill="#070b14"/>
<g clip-path="url(#c)"><rect width="470" height="46" fill="url(#s)"><animate attributeName="y" values="-46;210" dur="5s" repeatCount="indefinite"/></rect></g>
<rect x=".5" y=".5" width="469" height="209" rx="14" fill="none" stroke="#fb923c" stroke-opacity=".28"/>
<path d="M1 26V14Q1 1 14 1H26M444 1H456Q469 1 469 14V26M469 184V196Q469 209 456 209H444M26 209H14Q1 209 1 196V184" fill="none" stroke="#fb923c" stroke-width="2.2"/>
<text x="24" y="36" font-family="'JetBrains Mono','SFMono-Regular',Consolas,monospace" font-size="11" fill="#fb923c" letter-spacing="2">05 · GOVTECH · INTERNAL</text>
<circle cx="446" cy="32" r="4" fill="#fb923c"><animate attributeName="opacity" values="1;.2;1" dur="2s" repeatCount="indefinite"/></circle>
<text x="436" y="36" text-anchor="end" font-family="'JetBrains Mono','SFMono-Regular',Consolas,monospace" font-size="10" fill="#7d8aa5">internal use</text>
<text x="24" y="74" font-family="Georgia,serif" font-size="27" font-weight="700" fill="#e6edf7">Communications Mgmt</text>
<text x="24" y="98" font-family="'JetBrains Mono','SFMono-Regular',Consolas,monospace" font-size="12.5" fill="#b8c4dc">Internal system for an institutional</text><text x="24" y="118" font-family="'JetBrains Mono','SFMono-Regular',Consolas,monospace" font-size="12.5" fill="#b8c4dc">communications unit: content, CITEs, reports,</text><text x="24" y="138" font-family="'JetBrains Mono','SFMono-Regular',Consolas,monospace" font-size="12.5" fill="#b8c4dc">tasks and PDF/Excel reports. Private repo.</text><rect x="24" y="168" width="68" height="22" rx="11" fill="#fb923c" fill-opacity=".12" stroke="#fb923c" stroke-opacity=".5"/><text x="33" y="183" font-family="'JetBrains Mono','SFMono-Regular',Consolas,monospace" font-size="11" fill="#e6edf7">Next.js</text><rect x="100" y="168" width="75" height="22" rx="11" fill="#fb923c" fill-opacity=".12" stroke="#fb923c" stroke-opacity=".5"/><text x="109" y="183" font-family="'JetBrains Mono','SFMono-Regular',Consolas,monospace" font-size="11" fill="#e6edf7">Supabase</text><rect x="182" y="168" width="39" height="22" rx="11" fill="#fb923c" fill-opacity=".12" stroke="#fb923c" stroke-opacity=".5"/><text x="192" y="183" font-family="'JetBrains Mono','SFMono-Regular',Consolas,monospace" font-size="11" fill="#e6edf7">RLS</text><rect x="230" y="168" width="61" height="22" rx="11" fill="#fb923c" fill-opacity=".12" stroke="#fb923c" stroke-opacity=".5"/><text x="239" y="183" font-family="'JetBrains Mono','SFMono-Regular',Consolas,monospace" font-size="11" fill="#e6edf7">Tiptap</text></svg>