<svg xmlns="http://www.w3.org/2000/svg" width="1000" height="290" viewBox="0 0 1000 290"><rect width="1000" height="290" rx="14" fill="#070b14"/><rect x=".5" y=".5" width="999" height="289" rx="14" fill="none" stroke="#5eead4" stroke-opacity=".2"/><text x="24" y="54" font-family="'JetBrains Mono','SFMono-Regular',Consolas,monospace" font-size="11" fill="#5eead4" letter-spacing="2">FRONTEND</text><rect x="120" y="34" width="98" height="30" rx="8" fill="#5eead4" fill-opacity=".09" stroke="#5eead4" stroke-opacity=".45"/><text x="131" y="54" font-family="'JetBrains Mono','SFMono-Regular',Consolas,monospace" font-size="12.5" fill="#e6edf7">TypeScript</text><rect x="228" y="34" width="60" height="30" rx="8" fill="#5eead4" fill-opacity=".09" stroke="#5eead4" stroke-opacity=".45"/><text x="239" y="54" font-family="'JetBrains Mono','SFMono-Regular',Consolas,monospace" font-size="12.5" fill="#e6edf7">React</text><rect x="298" y="34" width="75" height="30" rx="8" fill="#5eead4" fill-opacity=".09" stroke="#5eead4" stroke-opacity=".45"/><text x="309" y="54" font-family="'JetBrains Mono','SFMono-Regular',Consolas,monospace" font-size="12.5" fill="#e6edf7">Next.js</text><rect x="383" y="34" width="113" height="30" rx="8" fill="#5eead4" fill-opacity=".09" stroke="#5eead4" stroke-opacity=".45"/><text x="394" y="54" font-family="'JetBrains Mono','SFMono-Regular',Consolas,monospace" font-size="12.5" fill="#e6edf7">React Native</text><rect x="506" y="34" width="83" height="30" rx="8" fill="#5eead4" fill-opacity=".09" stroke="#5eead4" stroke-opacity=".45"/><text x="517" y="54" font-family="'JetBrains Mono','SFMono-Regular',Consolas,monospace" font-size="12.5" fill="#e6edf7">Tailwind</text><rect x="599" y="34" width="75" height="30" rx="8" fill="#5eead4" fill-opacity=".09" stroke="#5eead4" stroke-opacity=".45"/><text x="610" y="54" font-family="'JetBrains Mono','SFMono-Regular',Consolas,monospace" font-size="12.5" fill="#e6edf7">Flutter</text><line x1="24" x2="976" y1="72" y2="72" stroke="#fff" stroke-opacity=".05"/><text x="24" y="100" font-family="'JetBrains Mono','SFMono-Regular',Consolas,monospace" font-size="11" fill="#a78bfa" letter-spacing="2">BACKEND</text><rect x="120" y="80" width="75" height="30" rx="8" fill="#a78bfa" fill-opacity=".09" stroke="#a78bfa" stroke-opacity=".45"/><text x="131" y="100" font-family="'JetBrains Mono','SFMono-Regular',Consolas,monospace" font-size="12.5" fill="#e6edf7">Node.js</text><rect x="205" y="80" width="75" height="30" rx="8" fill="#a78bfa" fill-opacity=".09" stroke="#a78bfa" stroke-opacity=".45"/><text x="216" y="100" font-family="'JetBrains Mono','SFMono-Regular',Consolas,monospace" font-size="12.5" fill="#e6edf7">Express</text><rect x="290" y="80" width="68" height="30" rx="8" fill="#a78bfa" fill-opacity=".09" stroke="#a78bfa" stroke-opacity=".45"/><text x="301" y="100" font-family="'JetBrains Mono','SFMono-Regular',Consolas,monospace" font-size="12.5" fill="#e6edf7">Python</text><rect x="368" y="80" width="60" height="30" rx="8" fill="#a78bfa" fill-opacity=".09" stroke="#a78bfa" stroke-opacity=".45"/><text x="379" y="100" font-family="'JetBrains Mono','SFMono-Regular',Consolas,monospace" font-size="12.5" fill="#e6edf7">Flask</text><rect x="438" y="80" width="68" height="30" rx="8" fill="#a78bfa" fill-opacity=".09" stroke="#a78bfa" stroke-opacity=".45"/><text x="449" y="100" font-family="'JetBrains Mono','SFMono-Regular',Consolas,monospace" font-size="12.5" fill="#e6edf7">Prisma</text><rect x="516" y="80" width="45" height="30" rx="8" fill="#a78bfa" fill-opacity=".09" stroke="#a78bfa" stroke-opacity=".45"/><text x="527" y="100" font-family="'JetBrains Mono','SFMono-Regular',Consolas,monospace" font-size="12.5" fill="#e6edf7">PHP</text><line x1="24" x2="976" y1="118" y2="118" stroke="#fff" stroke-opacity=".05"/><text x="24" y="146" font-family="'JetBrains Mono','SFMono-Regular',Consolas,monospace" font-size="11" fill="#fbbf24" letter-spacing="2">WEB3</text><rect x="120" y="126" width="75" height="30" rx="8" fill="#fbbf24" fill-opacity=".09" stroke="#fbbf24" stroke-opacity=".45"/><text x="131" y="146" font-family="'JetBrains Mono','SFMono-Regular',Consolas,monospace" font-size="12.5" fill="#e6edf7">Stellar</text><rect x="205" y="126" width="75" height="30" rx="8" fill="#fbbf24" fill-opacity=".09" stroke="#fbbf24" stroke-opacity=".45"/><text x="216" y="146" font-family="'JetBrains Mono','SFMono-Regular',Consolas,monospace" font-size="12.5" fill="#e6edf7">Soroban</text><rect x="290" y="126" width="83" height="30" rx="8" fill="#fbbf24" fill-opacity=".09" stroke="#fbbf24" stroke-opacity=".45"/><text x="301" y="146" font-family="'JetBrains Mono','SFMono-Regular',Consolas,monospace" font-size="12.5" fill="#e6edf7">Solidity</text><rect x="383" y="126" width="75" height="30" rx="8" fill="#fbbf24" fill-opacity=".09" stroke="#fbbf24" stroke-opacity=".45"/><text x="394" y="146" font-family="'JetBrains Mono','SFMono-Regular',Consolas,monospace" font-size="12.5" fill="#e6edf7">Hardhat</text><rect x="468" y="126" width="52" height="30" rx="8" fill="#fbbf24" fill-opacity=".09" stroke="#fbbf24" stroke-opacity=".45"/><text x="479" y="146" font-family="'JetBrains Mono','SFMono-Regular',Consolas,monospace" font-size="12.5" fill="#e6edf7">Rust</text><rect x="531" y="126" width="90" height="30" rx="8" fill="#fbbf24" fill-opacity=".09" stroke="#fbbf24" stroke-opacity=".45"/><text x="542" y="146" font-family="'JetBrains Mono','SFMono-Regular',Consolas,monospace" font-size="12.5" fill="#e6edf7">Noir (ZK)</text><line x1="24" x2="976" y1="164" y2="164" stroke="#fff" stroke-opacity=".05"/><text x="24" y="192" font-family="'JetBrains Mono','SFMono-Regular',Consolas,monospace" font-size="11" fill="#f472b6" letter-spacing="2">DATOS</text><rect x="120" y="172" width="98" height="30" rx="8" fill="#f472b6" fill-opacity=".09" stroke="#f472b6" stroke-opacity=".45"/><text x="131" y="192" font-family="'JetBrains Mono','SFMono-Regular',Consolas,monospace" font-size="12.5" fill="#e6edf7">PostgreSQL</text><rect x="228" y="172" width="83" height="30" rx="8" fill="#f472b6" fill-opacity=".09" stroke="#f472b6" stroke-opacity=".45"/><text x="239" y="192" font-family="'JetBrains Mono','SFMono-Regular',Consolas,monospace" font-size="12.5" fill="#e6edf7">Supabase</text><rect x="321" y="172" width="83" height="30" rx="8" fill="#f472b6" fill-opacity=".09" stroke="#f472b6" stroke-opacity=".45"/><text x="332" y="192" font-family="'JetBrains Mono','SFMono-Regular',Consolas,monospace" font-size="12.5" fill="#e6edf7">Firebase</text><rect x="414" y="172" width="68" height="30" rx="8" fill="#f472b6" fill-opacity=".09" stroke="#f472b6" stroke-opacity=".45"/><text x="425" y="192" font-family="'JetBrains Mono','SFMono-Regular',Consolas,monospace" font-size="12.5" fill="#e6edf7">SQLite</text><rect x="491" y="172" width="60" height="30" rx="8" fill="#f472b6" fill-opacity=".09" stroke="#f472b6" stroke-opacity=".45"/><text x="502" y="192" font-family="'JetBrains Mono','SFMono-Regular',Consolas,monospace" font-size="12.5" fill="#e6edf7">MinIO</text><line x1="24" x2="976" y1="210" y2="210" stroke="#fff" stroke-opacity=".05"/><text x="24" y="238" font-family="'JetBrains Mono','SFMono-Regular',Consolas,monospace" font-size="11" fill="#38bdf8" letter-spacing="2">OFICIO</text><rect x="120" y="218" width="68" height="30" rx="8" fill="#38bdf8" fill-opacity=".09" stroke="#38bdf8" stroke-opacity=".45"/><text x="131" y="238" font-family="'JetBrains Mono','SFMono-Regular',Consolas,monospace" font-size="12.5" fill="#e6edf7">Docker</text><rect x="198" y="218" width="68" height="30" rx="8" fill="#38bdf8" fill-opacity=".09" stroke="#38bdf8" stroke-opacity=".45"/><text x="209" y="238" font-family="'JetBrains Mono','SFMono-Regular',Consolas,monospace" font-size="12.5" fill="#e6edf7">Vercel</text><rect x="275" y="218" width="45" height="30" rx="8" fill="#38bdf8" fill-opacity=".09" stroke="#38bdf8" stroke-opacity=".45"/><text x="286" y="238" font-family="'JetBrains Mono','SFMono-Regular',Consolas,monospace" font-size="12.5" fill="#e6edf7">Git</text><rect x="330" y="218" width="68" height="30" rx="8" fill="#38bdf8" fill-opacity=".09" stroke="#38bdf8" stroke-opacity=".45"/><text x="341" y="238" font-family="'JetBrains Mono','SFMono-Regular',Consolas,monospace" font-size="12.5" fill="#e6edf7">Vitest</text><rect x="408" y="218" width="98" height="30" rx="8" fill="#38bdf8" fill-opacity=".09" stroke="#38bdf8" stroke-opacity=".45"/><text x="419" y="238" font-family="'JetBrains Mono','SFMono-Regular',Consolas,monospace" font-size="12.5" fill="#e6edf7">Playwright</text><rect x="516" y="218" width="75" height="30" rx="8" fill="#38bdf8" fill-opacity=".09" stroke="#38bdf8" stroke-opacity=".45"/><text x="527" y="238" font-family="'JetBrains Mono','SFMono-Regular',Consolas,monospace" font-size="12.5" fill="#e6edf7">Jenkins</text><line x1="24" x2="976" y1="256" y2="256" stroke="#fff" stroke-opacity=".05"/></svg>